HIERARCHY
ROOT Hips
{
	OFFSET 0.000000 0.000000 0.000000
	CHANNELS 6 Xposition Yposition Zposition Zrotation Yrotation Xrotation 
	JOINT LeftUpLeg_virtual
	{
		OFFSET 0.000000 0.000000 0.000000
		CHANNELS 3 Zrotation Yrotation Xrotation
		JOINT LeftUpLeg
		{
			OFFSET 10.205400 -3.823500 0.155100
			CHANNELS 3 Zrotation Yrotation Xrotation
			JOINT LeftLeg
			{
				OFFSET 0.708757 -12.982077 0.567790
				CHANNELS 3 Zrotation Yrotation Xrotation
				JOINT LeftFoot
				{
					OFFSET -0.708756 -10.717838 -2.184338
					CHANNELS 3 Zrotation Yrotation Xrotation
					JOINT LeftToeBase
					{
						OFFSET 0.108149 -7.191104 7.560241
						CHANNELS 3 Zrotation Yrotation Xrotation
						End Site
						{
							OFFSET 0.000000 0.000000 0.000000
						}
					}
				}
			}
		}
	}
	JOINT RightUpLeg_virtual
	{
		OFFSET 0.000000 0.000000 0.000000
		CHANNELS 3 Zrotation Yrotation Xrotation
		JOINT RightUpLeg
		{
			OFFSET -10.205400 -3.823500 0.005500
			CHANNELS 3 Zrotation Yrotation Xrotation
			JOINT RightLeg
			{
				OFFSET -0.708756 -12.982134 0.610632
				CHANNELS 3 Zrotation Yrotation Xrotation
				JOINT RightFoot
				{
					OFFSET 0.708754 -10.717769 -1.945823
					CHANNELS 3 Zrotation Yrotation Xrotation
					JOINT RightToeBase
					{
						OFFSET -0.108140 -7.191069 7.372968
						CHANNELS 3 Zrotation Yrotation Xrotation
						End Site
						{
							OFFSET 0.000000 0.000000 0.000000
						}
					}
				}
			}
		}
	}
	JOINT Spine_virtual
	{
		OFFSET 0.000000 0.000000 0.000000
		CHANNELS 3 Zrotation Yrotation Xrotation
		JOINT Spine
		{
			OFFSET 0.000000 6.876099 0.125700
			CHANNELS 3 Zrotation Yrotation Xrotation
			JOINT Spine1
			{
				OFFSET 0.000000 8.022060 0.146608
				CHANNELS 3 Zrotation Yrotation Xrotation
				JOINT Spine2
				{
					OFFSET 0.000000 9.168068 0.167552
					CHANNELS 3 Zrotation Yrotation Xrotation
					JOINT Neck_virtual
					{
						OFFSET 0.000000 0.000000 0.000000
						CHANNELS 3 Zrotation Yrotation Xrotation
						JOINT Neck
						{
							OFFSET 0.000000 10.314075 0.188496
							CHANNELS 3 Zrotation Yrotation Xrotation
							JOINT Head
							{
								OFFSET 0.000000 7.643700 -2.377400
								CHANNELS 3 Zrotation Yrotation Xrotation
								End Site
								{
									OFFSET 0.000000 0.000000 0.000000
								}
							}
						}
					}
					JOINT LeftShoulder_virtual
					{
						OFFSET 0.000000 0.000000 0.000000
						CHANNELS 3 Zrotation Yrotation Xrotation
						JOINT LeftShoulder
						{
							OFFSET 4.392200 8.824978 0.174984
							CHANNELS 3 Zrotation Yrotation Xrotation
							JOINT LeftArm
							{
								OFFSET 8.771219 -2.981674 -0.026999
								CHANNELS 3 Zrotation Yrotation Xrotation
								JOINT LeftForeArm
								{
									OFFSET 8.512804 0.000000 -0.000000
									CHANNELS 3 Zrotation Yrotation Xrotation
									JOINT LeftHand
									{
										OFFSET 18.484802 0.000000 -0.000000
										CHANNELS 3 Zrotation Yrotation Xrotation
										End Site
										{
											OFFSET 0.000000 0.000000 0.000000
										}
									}
								}
							}
						}
					}
					JOINT RightShoulder_virtual
					{
						OFFSET 0.000000 0.000000 0.000000
						CHANNELS 3 Zrotation Yrotation Xrotation
						JOINT RightShoulder
						{
							OFFSET -4.392200 8.824993 0.141379
							CHANNELS 3 Zrotation Yrotation Xrotation
							JOINT RightArm
							{
								OFFSET -8.771282 -2.981682 -0.094208
								CHANNELS 3 Zrotation Yrotation Xrotation
								JOINT RightForeArm
								{
									OFFSET -8.494598 0.000000 0.000000
									CHANNELS 3 Zrotation Yrotation Xrotation
									JOINT RightHand
									{
										OFFSET -18.483803 0.000000 0.000001
										CHANNELS 3 Zrotation Yrotation Xrotation
										End Site
										{
											OFFSET 0.000000 0.000000 0.000000
										}
									}
								}
							}
						}
					}
				}
			}
		}
	}
}
MOTION
Frames: 10
Frame Time: 0.033333
-2.267488 36.060040 12.627209 179.964379 2.402343 -179.854426 -2.934579 -3.896965 10.842165 -11.536574 0.298058 -16.818323 15.162217 5.290155 19.355805 1.120591 -1.055571 3.136930 0.000000 0.000000 0.000000 1.425164 -1.449869 9.621624 -0.075950 -2.338175 -12.413385 -6.654358 2.396910 14.843855 5.305682 2.076962 6.992515 0.000000 0.000000 0.000000 1.555462 0.109302 -0.766395 -4.135219 1.723479 -5.974227 0.568661 -3.057844 3.660534 0.018898 0.040539 0.003528 0.352304 -1.548229 6.696646 1.730551 2.175089 18.808717 0.000000 0.000000 0.000000 1.804437 -0.710635 3.145834 -8.056562 3.659572 -6.741119 -7.615486 16.246143 -37.282188 0.517409 -43.716759 -0.516267 0.000000 0.000000 0.000000 -1.854070 0.054884 2.701094 17.868033 -7.486101 -16.210235 14.232331 -17.980878 -47.464900 -1.373630 33.805386 1.564015 0.000000 0.000000 0.000000 
-2.247433 36.047630 12.650437 179.896692 2.422156 -179.792914 -3.062992 -3.945269 10.994164 -11.358409 -0.106897 -16.710997 15.353770 4.831752 19.419981 1.188847 -0.997034 2.881398 0.000000 0.000000 0.000000 1.399898 -1.355065 9.610801 -0.160670 -2.210981 -12.472795 -6.757887 2.640485 14.828115 5.241263 1.957432 7.289726 0.000000 0.000000 0.000000 1.480439 0.210925 -0.793750 -4.174915 1.704600 -6.054838 0.528994 -3.097459 3.650870 -0.012601 -0.007554 0.038986 0.372005 -1.575778 6.684474 1.730111 2.147720 18.840073 0.000000 0.000000 0.000000 1.858430 -0.593141 3.111270 -8.074989 3.685103 -6.592223 -7.505755 16.257346 -37.282021 0.595896 -43.577645 -0.650334 0.000000 0.000000 0.000000 -1.831888 0.108514 2.715975 17.818066 -7.466125 -16.147674 14.231217 -18.075285 -47.544021 -1.333919 33.875180 1.617713 0.000000 0.000000 0.000000 
-2.235431 36.036739 12.678904 179.892949 2.443356 -179.844304 -3.050349 -3.811580 11.098400 -11.341477 -0.167389 -16.863571 15.359468 4.802387 19.464309 1.165431 -1.019175 2.852158 0.000000 0.000000 0.000000 1.383667 -1.274417 9.700166 -0.117478 -2.328241 -12.523987 -6.755735 2.439464 14.871231 5.390044 1.947922 7.241095 0.000000 0.000000 0.000000 1.471609 0.258312 -0.741799 -4.165745 1.747767 -6.140968 0.540311 -3.076045 3.630811 -0.006138 0.023012 0.015960 0.404734 -1.589984 6.691515 1.706372 2.122630 18.813351 0.000000 0.000000 0.000000 1.889095 -0.670450 3.132881 -8.107967 3.827033 -6.677156 -7.410672 16.199214 -37.160894 0.568565 -43.525353 -0.689149 0.000000 0.000000 0.000000 -1.794094 0.142871 2.710589 17.818526 -7.564668 -16.091816 14.189428 -18.194278 -47.531017 -1.306883 33.970670 1.633437 0.000000 0.000000 0.000000 
-2.229905 36.029346 12.710180 179.994787 2.245810 -179.887375 -2.969653 -3.881427 11.162275 -11.313836 -0.214398 -16.999260 15.350486 4.778951 19.532227 1.106315 -1.063474 2.819573 0.000000 0.000000 0.000000 1.428455 -1.356654 9.793084 -0.060981 -2.422578 -12.601451 -6.775637 2.201661 14.811159 5.585551 1.922596 7.290008 0.000000 0.000000 0.000000 1.477172 0.263957 -0.704629 -4.104441 1.734344 -6.240799 0.578007 -3.079116 3.626491 0.013099 0.012484 0.026538 0.364097 -1.509220 6.669093 1.625826 2.089585 18.755797 0.000000 0.000000 0.000000 1.846452 -0.698111 3.176814 -8.175376 3.733536 -6.576034 -7.451691 16.224358 -37.083453 0.592243 -43.540622 -0.770774 0.000000 0.000000 0.000000 -1.812415 0.105579 2.673368 17.863043 -7.693218 -15.972688 14.137761 -18.232049 -47.566315 -1.324161 34.032562 1.638999 0.000000 0.000000 0.000000 
-2.229760 36.029335 12.730958 179.982656 2.096611 -179.826177 -2.993623 -3.924149 11.140401 -11.259630 -0.188221 -17.119982 15.326567 4.829305 19.557646 1.012143 -1.120101 2.739147 0.000000 0.000000 0.000000 1.418448 -1.416863 9.830135 -0.064825 -2.547272 -12.681332 -6.818403 1.966860 14.795827 5.811662 1.888559 7.331140 0.000000 0.000000 0.000000 1.438406 0.280997 -0.775062 -4.052657 1.692204 -6.330558 0.602079 -3.098470 3.667834 0.022746 -0.007279 0.034273 0.366252 -1.490531 6.623645 1.534826 2.059753 18.661153 0.000000 0.000000 0.000000 1.862820 -0.704421 3.117248 -8.253302 3.690910 -6.385713 -7.674303 16.279809 -37.127638 0.687658 -43.702945 -0.952633 0.000000 0.000000 0.000000 -1.802413 0.118153 2.700631 17.914152 -7.783356 -15.958103 14.137170 -18.192987 -47.686953 -1.281929 34.111027 1.675717 0.000000 0.000000 0.000000 
-2.229168 36.033562 12.748781 179.997765 2.034172 -179.850847 -2.992152 -3.881900 11.135812 -11.200329 -0.181069 -17.130792 15.278416 4.882249 19.505811 0.925941 -1.148208 2.723724 0.000000 0.000000 0.000000 1.431480 -1.383474 9.858155 -0.080224 -2.660052 -12.658439 -6.878747 1.645384 14.766903 6.084440 1.872404 7.365647 0.000000 0.000000 0.000000 1.398729 0.329421 -0.701704 -3.980771 1.693000 -6.503774 0.610953 -3.082849 3.656803 0.015613 0.000636 0.007368 0.375355 -1.465688 6.677161 1.427232 2.039277 18.628472 0.000000 0.000000 0.000000 1.894755 -0.701482 3.237010 -8.336148 3.572721 -6.381056 -8.010079 16.226190 -37.099723 0.773395 -44.073394 -1.055072 0.000000 0.000000 0.000000 -1.770368 0.152612 2.722998 17.951465 -7.873843 -15.734031 14.171265 -18.285311 -47.994527 -1.200935 34.198866 1.780250 0.000000 0.000000 0.000000 
-2.226361 36.044010 12.765143 179.931334 1.881084 -179.891268 -3.100218 -3.948769 11.122969 -11.120285 -0.174717 -17.076977 15.226638 4.915516 19.417516 0.855121 -1.155134 2.703518 0.000000 0.000000 0.000000 1.380857 -1.472569 9.846220 -0.123694 -2.730538 -12.614865 -6.896346 1.367094 14.668789 6.328394 1.859412 7.446463 0.000000 0.000000 0.000000 1.291384 0.315358 -0.618645 -3.940908 1.702663 -6.687184 0.603258 -3.080609 3.635976 0.022528 -0.014439 0.004754 0.382521 -1.459059 6.676827 1.325037 2.016894 18.610141 0.000000 0.000000 0.000000 1.921367 -0.642744 3.307551 -8.368298 3.451905 -6.506644 -8.517465 16.184671 -37.022337 0.902709 -44.678692 -1.178595 0.000000 0.000000 0.000000 -1.754008 0.177233 2.733132 18.016868 -7.985320 -15.515350 14.260340 -18.275693 -48.302582 -1.175260 34.102267 1.791492 0.000000 0.000000 0.000000 
-2.220008 36.055244 12.784666 179.990661 1.943355 -179.874849 -3.042169 -3.881847 11.111914 -11.016847 -0.189452 -17.030853 15.098710 4.869434 19.232037 0.913828 -1.052179 2.824464 0.000000 0.000000 0.000000 1.415295 -1.389333 9.841938 -0.023305 -3.014536 -12.496342 -6.975406 1.345046 14.393695 6.547226 1.805134 7.682201 0.000000 0.000000 0.000000 1.229277 0.277221 -0.622848 -3.849290 1.795331 -6.806195 0.624196 -3.014260 3.639392 0.016306 0.011569 0.007514 0.347044 -1.372954 6.678853 1.203406 1.970735 18.650112 0.000000 0.000000 0.000000 1.941711 -0.492164 3.381720 -8.305808 3.212385 -6.532631 -9.200115 16.285739 -36.991543 1.180747 -45.653070 -1.295737 0.000000 0.000000 0.000000 -1.741871 0.239172 2.759939 18.075619 -7.987682 -15.412660 14.418565 -18.295466 -48.578143 -1.030177 33.947912 1.926615 0.000000 0.000000 0.000000 
-2.215064 36.064308 12.811752 -179.987752 1.836655 -179.910229 -3.046241 -3.989358 11.090912 -10.906073 -0.265078 -16.974516 14.987262 4.891198 19.154019 0.976702 -0.975974 2.874307 0.000000 0.000000 0.000000 1.388620 -1.569181 9.780039 0.016561 -3.123577 -12.374026 -6.969393 1.259278 14.080759 6.691516 1.802565 7.897294 0.000000 0.000000 0.000000 1.144577 0.172782 -0.680918 -3.790387 1.897897 -6.914072 0.620354 -2.943287 3.652188 0.006996 0.018456 0.004157 0.345502 -1.289421 6.646560 1.174975 1.940518 18.778500 0.000000 0.000000 0.000000 1.932211 -0.556296 3.339538 -8.128185 3.023478 -6.374970 -10.077760 16.615607 -36.790534 1.626960 -47.132731 -1.465323 0.000000 0.000000 0.000000 -1.749843 0.298042 2.719829 18.147480 -8.026577 -15.146602 14.547599 -18.353022 -48.781454 -0.922442 33.555094 2.011117 0.000000 0.000000 0.000000 
-2.217319 36.069084 12.824489 -179.991085 1.704584 -179.882457 -3.091194 -4.118754 11.038695 -10.785560 -0.375392 -16.963383 14.838859 4.962210 19.185846 1.077165 -0.913728 2.875820 0.000000 0.000000 0.000000 1.327132 -1.741415 9.700989 0.070970 -3.263329 -12.214622 -6.937588 1.186563 13.766714 6.789216 1.855196 8.097127 0.000000 0.000000 0.000000 1.020534 0.026848 -0.788767 -3.768584 1.984854 -7.026466 0.612675 -2.886737 3.674113 0.006826 -0.013485 0.022203 0.317535 -1.166637 6.606029 1.214630 1.902015 18.983189 0.000000 0.000000 0.000000 1.915948 -0.363039 3.329969 -7.888304 2.875858 -6.375308 -11.161954 16.954606 -36.302572 2.117262 -49.370482 -1.490696 0.000000 0.000000 0.000000 -1.789057 0.440614 2.755346 18.209365 -7.933496 -14.912200 14.702143 -18.439257 -48.887540 -0.770068 33.137018 2.148094 0.000000 0.000000 0.000000 
